<svg width="37" height="63" viewBox="0 0 37 63" fill="none" xmlns="http://www.w3.org/2000/svg">
<path d="M28.2122 35.4697H6.66477L5.88441 38.0642H11.6295L12.7193 41.641H22.1577L23.2542 38.0642H28.9926L28.2122 35.4697ZM10.1831 20.9052C9.39043 22.0057 9.06418 23.3782 9.27612 24.7209C9.48805 26.0636 10.2208 27.2666 11.3133 28.0655L16.4731 31.8387C16.6093 31.9375 16.7246 32.0624 16.8126 32.2063C16.9006 32.3502 16.9594 32.5102 16.9856 32.677C17.0119 32.8439 17.0051 33.0144 16.9656 33.1786C16.9262 33.3428 16.8548 33.4976 16.7557 33.6339L17.5293 34.1961L20.2539 30.4161C20.8865 29.5451 21.228 28.4943 21.2293 27.4152C21.227 27.1406 21.2045 26.8667 21.162 26.5955C20.956 25.2549 20.2302 24.0513 19.1439 23.249L13.9908 19.4826C13.8489 19.3869 13.728 19.2631 13.6354 19.1186C13.5429 18.9742 13.4806 18.8122 13.4526 18.6426C13.4459 18.5748 13.4459 18.5071 13.4526 18.4394C13.4543 18.1695 13.5389 17.9069 13.6948 17.6874L12.9211 17.1184L10.1831 20.9052ZM13.2911 5.74452C12.3773 7.00787 11.885 8.53058 11.8851 10.0935C11.8831 10.4905 11.9147 10.8875 11.9793 11.279C12.1282 12.2441 12.466 13.1698 12.9729 14.0024C13.4799 14.835 14.146 15.558 14.9326 16.1294L21.4177 20.8713C21.8383 21.1772 22.1945 21.564 22.4659 22.0093C22.7372 22.4546 22.9183 22.9496 22.9986 23.4658C23.0331 23.6763 23.0511 23.8892 23.0524 24.1026C23.0491 24.9364 22.7829 25.7477 22.2922 26.4194L22.9179 26.8732L28.0239 19.7671C30.408 16.4389 29.6707 11.7966 26.3757 9.38226L18.5519 3.65806C18.3097 3.48143 18.1047 3.25815 17.9488 3.00116C17.7929 2.74418 17.6892 2.4586 17.6437 2.16097C17.5943 1.8637 17.6046 1.55948 17.6739 1.26628C17.7432 0.973074 17.8702 0.696833 18.0473 0.453871L17.4284 0L13.2911 5.74452ZM0.0518651 43.8087H5.95841C7.17125 43.7276 8.36648 44.1345 9.28168 44.94C9.56602 45.2237 9.78969 45.5629 9.93894 45.9369C10.0882 46.3108 10.1598 46.7116 10.1495 47.1145V47.1552C10.1654 47.7279 10.0164 48.293 9.72033 48.7822C9.42428 49.2715 8.99388 49.664 8.48114 49.9123C9.94768 50.4813 10.8559 51.3416 10.8559 53.0623C10.8559 55.4061 8.97223 56.5781 6.09968 56.5781H0.0451378L0.0518651 43.8087ZM5.37986 48.9842C6.61096 48.9842 7.39805 48.5777 7.39805 47.6294C7.39805 46.7826 6.72532 46.2745 5.5615 46.2745H2.77641V48.9842H5.37986ZM6.11986 54.1394C7.35768 54.1394 8.09768 53.699 8.09768 52.7845V52.7439C8.09768 51.8903 7.46532 51.389 6.03241 51.389H2.77641V54.2071L6.11986 54.1394ZM12.1071 43.8087H18.0137C19.2265 43.7276 20.4218 44.1345 21.337 44.94C21.6201 45.2242 21.8425 45.5637 21.9906 45.9377C22.1387 46.3116 22.2093 46.7121 22.198 47.1145V47.1552C22.214 47.7279 22.0649 48.293 21.7689 48.7822C21.4728 49.2715 21.0424 49.664 20.5297 49.9123C22.003 50.4813 22.9111 51.3416 22.9111 53.0623C22.9111 55.4061 21.0208 56.5781 18.1482 56.5781H12.1071V43.8087ZM17.415 48.9842C18.646 48.9842 19.4331 48.5777 19.4331 47.6294C19.4331 46.7826 18.7604 46.2745 17.6033 46.2745H14.798V48.9842H17.415ZM18.155 54.1394C19.3928 54.1394 20.1328 53.699 20.1328 52.7845V52.7439C20.1328 51.8903 19.5004 51.389 18.0675 51.389H14.798V54.2071L18.155 54.1394ZM24.0951 43.8087H30.0017C31.2145 43.7276 32.4098 44.1345 33.325 44.94C33.6093 45.2237 33.833 45.5629 33.9822 45.9369C34.1315 46.3108 34.2031 46.7116 34.1928 47.1145V47.1552C34.2087 47.7279 34.0597 48.293 33.7636 48.7822C33.4675 49.2715 33.0372 49.664 32.5244 49.9123C33.9977 50.4813 34.9059 51.3416 34.9059 53.0623C34.9059 55.4061 33.0155 56.5781 30.143 56.5781H24.0884L24.0951 43.8087ZM29.403 48.9842C30.634 48.9842 31.4211 48.5777 31.4211 47.6294C31.4211 46.7826 30.7484 46.2745 29.5913 46.2745H26.8197V48.9842H29.403ZM30.143 54.1394C31.3808 54.1394 32.1275 53.699 32.1275 52.7845V52.7439C32.1275 51.8903 31.4884 51.389 30.0555 51.389H26.8197V54.2071L30.143 54.1394ZM-0.00195312 62.0516L0.220047 61.7942C0.368518 61.9396 0.544456 62.0534 0.737435 62.1291C0.930414 62.2047 1.13651 62.2406 1.3435 62.2345C1.77405 62.2345 2.06332 62.011 2.06332 61.7061C2.06332 61.4148 1.90187 61.2523 1.22241 61.11C0.542956 60.9677 0.146047 60.7171 0.146047 60.2023C0.156832 60.075 0.193047 59.9512 0.252519 59.8383C0.311991 59.7255 0.393493 59.6259 0.492134 59.5455C0.590775 59.4652 0.70452 59.4057 0.826543 59.3707C0.948566 59.3358 1.07635 59.326 1.20223 59.3419C1.61289 59.3291 2.01431 59.4662 2.33241 59.7281L2.11714 59.999C1.86133 59.7576 1.52584 59.6201 1.17532 59.6129C0.758229 59.6129 0.502592 59.8365 0.502592 60.121C0.502592 60.419 0.670774 60.5884 1.37714 60.7374C2.0835 60.8865 2.41986 61.1439 2.41986 61.6248C2.41986 62.1668 1.96241 62.519 1.32332 62.519C0.838451 62.5397 0.364171 62.3724 -0.00195312 62.0516ZM3.07241 61.8958V60.4936H2.74277V60.1887H3.07241V59.5113H3.42223V60.1887H4.17568V60.4936H3.42223V61.8484C3.42223 62.1329 3.58368 62.2345 3.82586 62.2345C3.94518 62.2368 4.06315 62.2088 4.16896 62.1532V62.4513C4.039 62.5221 3.89282 62.5571 3.74514 62.5529C3.6558 62.5646 3.565 62.5558 3.47951 62.5272C3.39402 62.4986 3.31604 62.4509 3.25138 62.3878C3.18672 62.3246 3.13704 62.2476 3.10605 62.1624C3.07507 62.0772 3.06357 61.9861 3.07241 61.8958ZM4.48514 61.8348C4.48514 61.3471 4.8955 61.0829 5.50096 61.0829C5.74682 61.08 5.99174 61.1142 6.2275 61.1845V61.1032C6.2275 60.6832 5.96514 60.4665 5.55477 60.4665C5.30476 60.4701 5.05876 60.5303 4.83496 60.6426L4.70714 60.3513C4.9783 60.2216 5.27477 60.1545 5.57496 60.1548C5.8541 60.1371 6.12915 60.2294 6.34187 60.4123C6.51005 60.5958 6.5975 60.8404 6.58405 61.0897V62.5123H6.2275V62.16C6.12691 62.2885 5.99789 62.3916 5.85072 62.461C5.70355 62.5304 5.54231 62.5642 5.37986 62.5597C4.92914 62.5597 4.48514 62.3226 4.48514 61.8348ZM6.23423 61.6452V61.4216C6.01599 61.3554 5.78942 61.3212 5.5615 61.32C5.1175 61.32 4.88877 61.5097 4.88877 61.801C4.88877 62.099 5.16459 62.2684 5.4875 62.2684C5.66708 62.2785 5.84381 62.2199 5.98229 62.1043C6.12076 61.9887 6.21075 61.8247 6.23423 61.6452ZM7.18277 60.1887H7.53932V60.7984C7.6077 60.5974 7.73773 60.4235 7.91063 60.3017C8.08353 60.18 8.29038 60.1167 8.50132 60.121V60.4936C8.36763 60.4924 8.23526 60.5202 8.11313 60.5749C7.99099 60.6297 7.88194 60.7102 7.79332 60.811C7.7047 60.9117 7.63857 61.0305 7.59939 61.1592C7.56022 61.2879 7.54891 61.4236 7.56623 61.5571V62.4852H7.20968L7.18277 60.1887ZM9.02605 61.8958V60.4936H8.69641V60.1887H9.02605V59.5113H9.41623V60.1887H10.1697V60.4936H9.41623V61.8484C9.41623 62.1329 9.57768 62.2345 9.81314 62.2345C9.93245 62.2368 10.0504 62.2088 10.1562 62.1532V62.4513C10.0263 62.5221 9.88009 62.5571 9.73241 62.5529C9.64056 62.5704 9.54593 62.5659 9.45609 62.54C9.36625 62.514 9.2837 62.4672 9.21504 62.4033C9.14638 62.3395 9.09353 62.2603 9.06071 62.1722C9.02789 62.084 9.01602 61.9894 9.02605 61.8958ZM11.6699 59.369H12.0668L12.9817 61.9839L13.863 59.3555H14.159L15.0402 61.9839L15.9619 59.369H16.3386L15.195 62.5326H14.8855L14.0042 59.9787L13.123 62.5326H12.8202L11.6699 59.369ZM16.8162 59.3013H17.2199V59.6806H16.8162V59.3013ZM16.8162 60.1887H17.1728V62.5123H16.8162V60.1887ZM17.9935 61.8958V60.4936H17.6639V60.1887H17.9935V59.5113H18.3433V60.1887H19.0968V60.4936H18.3433V61.8484C18.3433 62.1329 18.5048 62.2345 18.747 62.2345C18.866 62.2352 18.9838 62.2074 19.09 62.1532V62.4513C18.9577 62.522 18.8093 62.557 18.6595 62.5529C18.5704 62.5648 18.4798 62.5561 18.3946 62.5274C18.3094 62.4988 18.2317 62.4511 18.1675 62.3877C18.1034 62.3244 18.0543 62.2472 18.0242 62.162C17.994 62.0768 17.9835 61.9857 17.9935 61.8958ZM19.5811 59.2336H19.9377V60.5884C20.0195 60.4454 20.1386 60.3275 20.282 60.2475C20.4255 60.1675 20.5878 60.1285 20.7517 60.1345C20.8742 60.1263 20.9971 60.1448 21.1118 60.1888C21.2266 60.2327 21.3307 60.301 21.4169 60.3891C21.503 60.4772 21.5694 60.5829 21.6113 60.6992C21.6532 60.8154 21.6698 60.9393 21.6599 61.0626V62.5055H21.3033V61.1506C21.3116 61.0596 21.2999 60.9678 21.269 60.8819C21.2381 60.7959 21.1888 60.7178 21.1246 60.6532C21.0604 60.5885 20.9829 60.5389 20.8975 60.5078C20.8121 60.4767 20.721 60.4649 20.6306 60.4732C20.5342 60.4671 20.4376 60.4819 20.3474 60.5167C20.2572 60.5514 20.1755 60.6054 20.1078 60.6748C20.0402 60.7442 19.9882 60.8275 19.9553 60.9189C19.9225 61.0104 19.9096 61.1079 19.9175 61.2048V62.5597H19.561L19.5811 59.2336ZM24.418 59.6942H23.3417V59.369H25.8644V59.6942H24.788V62.5123H24.418V59.6942ZM26.3488 60.1887H26.6986V60.7984C26.7691 60.5974 26.9006 60.4239 27.0744 60.3023C27.2483 60.1808 27.4557 60.1173 27.6673 60.121V60.4936C27.5334 60.4926 27.4008 60.5203 27.2784 60.575C27.156 60.6297 27.0465 60.7101 26.9574 60.8107C26.8683 60.9114 26.8015 61.03 26.7615 61.1587C26.7215 61.2874 26.7092 61.4232 26.7255 61.5571V62.4852H26.3757L26.3488 60.1887ZM28.0306 61.6452V60.1887H28.3804V61.5435C28.3733 61.6343 28.3859 61.7256 28.4172 61.811C28.4485 61.8964 28.4978 61.974 28.5617 62.0384C28.6257 62.1028 28.7027 62.1524 28.7875 62.184C28.8724 62.2155 28.963 62.2281 29.0531 62.221C29.1495 62.2271 29.2461 62.2123 29.3363 62.1775C29.4265 62.1428 29.5082 62.0888 29.5759 62.0194C29.6435 61.95 29.6956 61.8667 29.7284 61.7753C29.7612 61.6838 29.7741 61.5863 29.7662 61.4894V60.1345H30.116V62.4581H29.7662V62.0516C29.6833 62.1937 29.564 62.3107 29.4208 62.3905C29.2776 62.4704 29.1158 62.5101 28.9522 62.5055C28.8345 62.5148 28.7161 62.4995 28.6046 62.4605C28.493 62.4215 28.3907 62.3596 28.3041 62.2788C28.2175 62.1979 28.1485 62.0999 28.1014 61.9908C28.0543 61.8818 28.0302 61.7641 28.0306 61.6452ZM30.56 62.2142L30.735 61.9703C30.9723 62.15 31.2589 62.2517 31.5557 62.2616C31.845 62.2616 32.0468 62.1194 32.0468 61.8958C32.0468 61.6587 31.771 61.5706 31.4548 61.4826C31.1386 61.3945 30.6744 61.259 30.6744 60.8052C30.6744 60.4055 31.0108 60.1277 31.4817 60.1277C31.7844 60.1345 32.0797 60.2226 32.336 60.3852L32.1746 60.6426C31.973 60.5115 31.7414 60.4345 31.5019 60.419C31.226 60.419 31.0444 60.5613 31.0444 60.7577C31.0444 60.9813 31.3404 61.0626 31.6566 61.1574C31.9728 61.2523 32.4168 61.4081 32.4168 61.8348C32.4168 62.2752 32.0468 62.5123 31.5759 62.5123C31.214 62.5275 30.8571 62.4228 30.56 62.2142ZM33.029 61.8958V60.4936H32.6926V60.1887H33.029V59.5113H33.3788V60.1887H34.1322V60.4936H33.3788V61.8484C33.3788 62.1329 33.5402 62.2345 33.7757 62.2345C33.8968 62.2359 34.0172 62.2074 34.1255 62.1532V62.4513C33.9928 62.5212 33.8447 62.5561 33.695 62.5529C33.6059 62.5648 33.5153 62.5561 33.4301 62.5274C33.3448 62.4988 33.2672 62.4511 33.203 62.3877C33.1388 62.3244 33.0898 62.2472 33.0596 62.162C33.0295 62.0768 33.019 61.9857 33.029 61.8958ZM34.6166 62.3226L34.7579 62.16C34.8436 62.2412 34.9564 62.2871 35.074 62.2887C35.1682 62.2887 35.2288 62.2481 35.2288 62.1871C35.2288 62.1261 35.1884 62.0923 35.0135 62.0448C34.8386 61.9974 34.657 61.9297 34.657 61.7197C34.6594 61.6733 34.6713 61.6279 34.6918 61.5863C34.7124 61.5448 34.7413 61.5079 34.7766 61.4781C34.8119 61.4482 34.853 61.426 34.8972 61.4128C34.9414 61.3996 34.9879 61.3957 35.0337 61.4013C35.1776 61.3986 35.318 61.4465 35.4306 61.5368L35.3095 61.7129C35.2283 61.6489 35.1298 61.6111 35.027 61.6045C34.9395 61.6045 34.8924 61.6519 34.8924 61.6994C34.8924 61.7671 34.9395 61.7942 35.1211 61.8416C35.3028 61.889 35.4575 61.9771 35.4575 62.16C35.4575 62.37 35.296 62.4919 35.0673 62.4919C34.9015 62.4934 34.741 62.433 34.6166 62.3226ZM35.6526 61.4284H35.9015L36.184 61.8823L36.4666 61.4284H36.7155V62.5055H36.4868V61.8281L36.184 62.2887L35.888 61.8348V62.5123H35.6526V61.4284Z" fill="white"/>
</svg>
