<svg width="150" height="46" viewBox="0 0 150 46" fill="none" xmlns="http://www.w3.org/2000/svg">
<g clip-path="url(#clip0_430_29811)">
<path d="M146 0.25H4C1.92893 0.25 0.25 1.92893 0.25 4V42C0.25 44.0711 1.92893 45.75 4 45.75H146C148.071 45.75 149.75 44.0711 149.75 42V4C149.75 1.92893 148.071 0.25 146 0.25Z" stroke="white" stroke-opacity="0.3" stroke-width="0.5"/>
<path d="M9.70703 23.6963H14.6519C16.5815 23.6963 18.2051 24.3457 19.5225 25.626C20.8306 26.9155 21.4893 28.4927 21.4893 30.3481C21.4893 32.2129 20.8306 33.79 19.5225 35.0703C18.2051 36.3599 16.5815 37 14.6519 37H9.70703V23.6963ZM14.6519 26.2661H12.5645V34.4395H14.6519C15.7466 34.4395 16.6929 34.0498 17.4722 33.252C18.2515 32.4634 18.6411 31.4985 18.6411 30.3574C18.6411 29.2163 18.2607 28.2515 17.5 27.4536C16.7393 26.665 15.7837 26.2661 14.6519 26.2661ZM23.6426 37L23.6333 23.6963H29.5244C30.8418 23.6963 31.9365 24.123 32.7993 24.9673C33.6621 25.8115 34.0889 26.8413 34.0889 28.0659C34.0889 28.604 34.0054 29.0957 33.8384 29.5596C33.6714 30.0234 33.4766 30.4038 33.2539 30.6821C33.0312 30.9697 32.7993 31.2109 32.5674 31.415C32.3262 31.6191 32.1313 31.7583 31.9644 31.8325L31.7231 31.9624L34.5713 37H31.5283L28.9678 32.3428H26.5V37H23.6426ZM31.2407 28.0659C31.2407 27.5464 31.0737 27.1196 30.7305 26.7764C30.3872 26.4424 29.9512 26.2661 29.4316 26.2661H26.4907V29.7822H29.4316C29.9512 29.7822 30.3872 29.6245 30.7305 29.2905C31.0737 28.9565 31.2407 28.5483 31.2407 28.0659ZM39.4893 34.4395H46.6143V37H36.6318V23.6963H46.4194V26.2661H39.4893V28.9287H44.8979V31.4893H39.4893V34.4395ZM55.6143 31.3965L54 27.0269L52.3765 31.3965H55.6143ZM56.5605 33.8643H51.4302L50.2891 37H47.2461L52.4785 23.6963H55.5122L60.7446 37H57.7017L56.5605 33.8643ZM69.2715 29.4946L73.873 23.6963H76.3965V37H73.5483V28.1309L69.2715 33.5767L65.0039 28.168V37H62.1465V23.6963H64.7163L69.2715 29.4946ZM85.1089 33.1035C85.1089 32.6582 84.877 32.3057 84.4316 32.0366C83.9863 31.7583 83.439 31.5356 82.7896 31.3501C82.1401 31.1646 81.5 30.9512 80.8599 30.71C80.2197 30.4595 79.6724 30.0513 79.2178 29.4854C78.7725 28.9102 78.5405 28.1958 78.5405 27.3237C78.5405 26.2476 78.9766 25.3291 79.8394 24.5684C80.7021 23.8076 81.8247 23.4272 83.1978 23.4272C83.7451 23.4272 84.2739 23.4829 84.7749 23.6128C85.2852 23.7427 85.7026 23.8911 86.0273 24.0581C86.3521 24.2251 86.6396 24.4014 86.8809 24.5776C87.1221 24.7539 87.2983 24.9116 87.4004 25.0415L87.5674 25.2271L85.8604 27.0361C85.7861 26.9434 85.6841 26.8413 85.5542 26.7114C85.4243 26.5815 85.1367 26.4146 84.71 26.2012C84.2832 25.9971 83.8472 25.8857 83.3926 25.8857C82.8545 25.8857 82.4185 26.0249 82.0845 26.3032C81.7505 26.5815 81.5835 26.9248 81.5835 27.3145C81.5835 27.7598 81.8154 28.1216 82.2607 28.3906C82.7061 28.6597 83.2534 28.8823 83.8936 29.0679C84.5337 29.2534 85.1738 29.4761 85.8232 29.7173C86.4727 29.9678 87.02 30.376 87.4653 30.9419C87.9199 31.5171 88.1426 32.2314 88.1426 33.1035C88.1426 34.3374 87.6973 35.3394 86.8066 36.1187C85.916 36.8979 84.6821 37.2876 83.105 37.2876C82.4927 37.2876 81.8896 37.2134 81.3145 37.0649C80.7393 36.9165 80.2568 36.731 79.8857 36.5176C79.5146 36.3135 79.1807 36.1001 78.9023 35.8774C78.6147 35.6641 78.4106 35.4785 78.29 35.3301L78.0767 35.0981L79.793 33.3911C79.8765 33.4932 79.9971 33.623 80.1548 33.7808C80.3125 33.9385 80.665 34.1519 81.2124 34.4116C81.7505 34.6807 82.3257 34.8105 82.9194 34.8105C83.606 34.8105 84.1348 34.6528 84.5244 34.3281C84.9141 34.0127 85.1089 33.6045 85.1089 33.1035ZM88.4868 23.6963H98.9331V26.2661H95.1387V37H92.2905V26.2661H88.4868V23.6963ZM101.949 30.3574C101.949 31.582 102.357 32.6211 103.192 33.4561C104.018 34.3003 105.029 34.7178 106.217 34.7178C107.404 34.7178 108.416 34.3003 109.241 33.4561C110.076 32.6211 110.484 31.582 110.484 30.3574C110.484 29.1328 110.076 28.0938 109.241 27.2495C108.416 26.4053 107.404 25.9785 106.217 25.9785C105.029 25.9785 104.018 26.4053 103.192 27.2495C102.357 28.0938 101.949 29.1328 101.949 30.3574ZM98.999 30.3481C98.999 28.437 99.6948 26.8042 101.086 25.4497C102.478 24.0952 104.194 23.418 106.217 23.418C108.239 23.418 109.956 24.0952 111.347 25.4497C112.739 26.8042 113.435 28.437 113.435 30.3481C113.435 32.2593 112.739 33.9014 111.347 35.2559C109.956 36.6104 108.239 37.2876 106.217 37.2876C104.194 37.2876 102.478 36.6104 101.086 35.2559C99.6948 33.9014 98.999 32.2593 98.999 30.3481ZM124.633 23.6963H127.481V37H125.014L118.464 28.5483V37H115.606V23.6963H118.083L124.633 32.1572V23.6963ZM133.253 34.4395H140.378V37H130.396V23.6963H140.183V26.2661H133.253V28.9287H138.662V31.4893H133.253V34.4395Z" fill="white"/>
<path d="M12.3316 12.1768L11.7427 12.7612C11.7207 12.7393 11.6856 12.7085 11.6416 12.6646C11.5977 12.6206 11.501 12.5679 11.3604 12.502C11.2197 12.436 11.0747 12.4009 10.9341 12.4009C10.7407 12.4009 10.5869 12.4492 10.4727 12.5371C10.3584 12.625 10.3057 12.7305 10.3057 12.8491C10.3057 12.9766 10.3584 13.082 10.4683 13.1655C10.5737 13.2534 10.71 13.3149 10.877 13.3589C11.0396 13.4028 11.2153 13.46 11.4043 13.5259C11.5933 13.5918 11.7691 13.6665 11.936 13.7456C12.103 13.8291 12.2393 13.9565 12.3491 14.1235C12.4546 14.2949 12.5117 14.5015 12.5117 14.7388C12.5117 15.1123 12.3579 15.4287 12.0591 15.6924C11.7603 15.9561 11.3692 16.0879 10.8901 16.0879C10.6792 16.0879 10.4771 16.0615 10.2837 16.0088C10.0903 15.9561 9.93653 15.8945 9.81348 15.8198C9.69043 15.7495 9.58057 15.6748 9.48828 15.6001C9.396 15.5254 9.33008 15.4595 9.29053 15.4067L9.22461 15.3232L9.80908 14.7388C9.83545 14.7827 9.8794 14.8311 9.93653 14.8926C9.99365 14.9541 10.1167 15.0376 10.3057 15.1343C10.4946 15.231 10.688 15.2793 10.8901 15.2793C11.1275 15.2793 11.3076 15.231 11.4307 15.1343C11.5493 15.0376 11.6109 14.9058 11.6109 14.7388C11.6109 14.6157 11.5537 14.5103 11.4483 14.4268C11.3384 14.3433 11.2022 14.2773 11.0396 14.2334C10.8726 14.1895 10.6968 14.1323 10.5078 14.0664C10.3189 14.0005 10.1431 13.9258 9.97608 13.8467C9.80908 13.7676 9.67285 13.6401 9.56738 13.4688C9.45752 13.2974 9.40479 13.0908 9.40479 12.8491C9.40479 12.5195 9.54981 12.2251 9.83985 11.9702C10.1299 11.7153 10.4946 11.5879 10.9341 11.5879C11.1055 11.5879 11.2725 11.6099 11.4351 11.6494C11.5977 11.689 11.7295 11.7373 11.835 11.7944C11.936 11.8516 12.0239 11.9087 12.103 11.9702C12.1821 12.0317 12.2393 12.0757 12.2744 12.1108L12.3316 12.1768ZM14.0366 11.1396V10.2388H14.8452V11.6802H15.7461V12.4888H14.8452V14.73C14.8452 14.8926 14.8936 15.0244 14.999 15.1255C15.1001 15.231 15.2276 15.2793 15.3814 15.2793C15.4517 15.2793 15.522 15.2749 15.5967 15.2573C15.6714 15.2441 15.7285 15.2266 15.7681 15.209L15.834 15.1914V16C15.6582 16.0615 15.4473 16.0879 15.2012 16.0879C14.3618 16.0879 13.9443 15.6396 13.9487 14.7388V12.4888H13.1358V11.6802H13.5884C13.8872 11.6802 14.0366 11.5 14.0366 11.1396ZM19.3452 12.4448C19.2222 12.4185 19.0859 12.4009 18.9365 12.4009C18.5938 12.4009 18.3213 12.5151 18.1192 12.7349C17.917 12.9546 17.8115 13.2666 17.8115 13.6621V16H16.9107V11.6802H17.8115V12.1284L17.8687 12.0713C17.895 12.0449 17.9522 12.0054 18.0357 11.9438C18.1235 11.8823 18.2114 11.8296 18.3081 11.7812C18.4048 11.7329 18.5234 11.689 18.6729 11.6494C18.8223 11.6099 18.9717 11.5879 19.1211 11.5879H19.3452V12.4448ZM24.065 14.1543H20.6856C20.7339 14.4619 20.8833 14.7256 21.1382 14.9453C21.3931 15.1694 21.6919 15.2793 22.0391 15.2793C22.294 15.2793 22.5269 15.2222 22.7466 15.1079C22.9663 14.9937 23.1201 14.8838 23.208 14.7739L23.3443 14.6069L23.9287 15.1914C23.9111 15.2178 23.8848 15.2485 23.8496 15.2925C23.8145 15.3364 23.7354 15.4067 23.6123 15.5078C23.4937 15.6089 23.3662 15.6968 23.23 15.7759C23.0982 15.855 22.9224 15.9253 22.707 15.9912C22.4917 16.0571 22.2676 16.0879 22.0391 16.0879C21.4282 16.0879 20.9009 15.8638 20.457 15.4155C20.0132 14.9673 19.7891 14.4268 19.7891 13.7939C19.7891 13.1875 20.0088 12.6689 20.4395 12.2383C20.8701 11.8076 21.3887 11.5879 21.9951 11.5879C22.6016 11.5879 23.1026 11.79 23.5068 12.1943C23.9111 12.5986 24.1133 13.0996 24.1133 13.7061L24.065 14.1543ZM21.9907 12.3569C21.6655 12.3569 21.3931 12.4536 21.1734 12.647C20.9536 12.8403 20.8042 13.0864 20.7251 13.3896H23.2256C23.1729 13.0864 23.0366 12.8403 22.8169 12.647C22.5972 12.4536 22.3247 12.3569 21.9907 12.3569ZM25.9985 11.6802L25.9942 12.1328L26.0513 12.0757C26.0776 12.0493 26.1348 12.0054 26.2183 11.9438C26.3062 11.8823 26.3941 11.8296 26.4907 11.7812C26.5874 11.7329 26.7061 11.689 26.8555 11.6494C27.0049 11.6099 27.1499 11.5923 27.2993 11.5923C27.8223 11.5923 28.2442 11.7637 28.5693 12.1064C28.8945 12.4492 29.0571 12.9062 29.0571 13.4863V16.0044H28.1563V13.4863C28.1563 13.1743 28.0552 12.915 27.8574 12.7085C27.6597 12.5063 27.4136 12.4009 27.1235 12.4009C26.7808 12.4009 26.5039 12.5151 26.3018 12.7349C26.0996 12.9546 25.9985 13.2666 25.9985 13.6621V16H25.0977V11.6802H25.9985ZM33.377 15.7407V15.3716L33.3198 15.4287C33.2935 15.4551 33.2363 15.499 33.1528 15.5605C33.0693 15.6221 32.9815 15.6748 32.8848 15.7231C32.7881 15.7715 32.6651 15.8154 32.52 15.855C32.3706 15.8945 32.2212 15.9121 32.0718 15.9121C31.5269 15.9121 31.0523 15.7056 30.6524 15.2837C30.2481 14.8618 30.0503 14.3521 30.0503 13.75C30.0503 13.1523 30.2481 12.6426 30.6524 12.2207C31.0523 11.7988 31.5269 11.5879 32.0718 11.5879C32.3091 11.5879 32.5376 11.6362 32.7573 11.7241C32.9727 11.8164 33.1309 11.9087 33.2276 11.9966L33.377 12.1284V11.6802H34.2778V15.7319C34.2778 16.3384 34.0669 16.8525 33.6538 17.2656C33.2363 17.6831 32.7266 17.8896 32.1201 17.8896C31.874 17.8896 31.6367 17.8589 31.417 17.7974C31.1929 17.7358 31.0083 17.6611 30.8677 17.5732C30.7227 17.4854 30.5952 17.3975 30.4898 17.3096C30.3799 17.2217 30.3008 17.147 30.2568 17.0811L30.1821 16.9888L30.771 16.4043C30.7798 16.4219 30.8018 16.4482 30.8281 16.479C30.8545 16.5098 30.9072 16.5625 30.9951 16.6416C31.083 16.7207 31.1753 16.7866 31.272 16.8481C31.3687 16.9097 31.4917 16.9624 31.6455 17.0107C31.7949 17.0591 31.9531 17.0811 32.1201 17.0811C32.4849 17.0811 32.7837 16.958 33.021 16.7075C33.2583 16.4614 33.377 16.1362 33.377 15.7407ZM30.9468 13.75C30.9468 14.1279 31.0654 14.4487 31.3115 14.708C31.5532 14.9717 31.8389 15.0991 32.1641 15.0991C32.4893 15.0991 32.7705 14.9717 33.0122 14.708C33.2539 14.4487 33.377 14.1279 33.377 13.75C33.377 13.3721 33.2539 13.0557 33.0122 12.792C32.7705 12.5327 32.4893 12.4009 32.1641 12.4009C31.8389 12.4009 31.5532 12.5327 31.3115 12.792C31.0654 13.0557 30.9468 13.3721 30.9468 13.75ZM36.0796 11.1396V10.2388H36.8882V11.6802H37.7891V12.4888H36.8882V14.73C36.8882 14.8926 36.9365 15.0244 37.042 15.1255C37.1431 15.231 37.2705 15.2793 37.4243 15.2793C37.4946 15.2793 37.565 15.2749 37.6397 15.2573C37.7144 15.2441 37.7715 15.2266 37.811 15.209L37.877 15.1914V16C37.7012 16.0615 37.4902 16.0879 37.2442 16.0879C36.4048 16.0879 35.9873 15.6396 35.9917 14.7388V12.4888H35.1787V11.6802H35.6314C35.9302 11.6802 36.0796 11.5 36.0796 11.1396ZM39.9468 9.69824V12.1328C39.9556 12.1196 39.9776 12.1021 40.0039 12.0757C40.0303 12.0493 40.0874 12.0054 40.1709 11.9438C40.2544 11.8823 40.3467 11.8296 40.4434 11.7812C40.5401 11.7329 40.6587 11.689 40.8081 11.6494C40.9531 11.6099 41.1026 11.5923 41.252 11.5923C41.7705 11.5923 42.1968 11.7637 42.522 12.1064C42.8472 12.4492 43.0098 12.9062 43.0098 13.4863V16.0044H42.1089V13.4863C42.1089 13.1743 42.0078 12.915 41.8101 12.7085C41.6123 12.5063 41.3662 12.4009 41.0718 12.4009C40.729 12.4009 40.4522 12.5151 40.25 12.7349C40.0479 12.9546 39.9468 13.2666 39.9468 13.6621V16H39.0503V9.69824H39.9468ZM50.1641 14.8311C50.1817 14.8662 50.208 14.9102 50.2476 14.9585C50.2871 15.0068 50.3618 15.0728 50.4673 15.1562C50.5728 15.2397 50.6826 15.2793 50.7881 15.2793C50.8189 15.2793 50.8496 15.2749 50.876 15.2661C50.9024 15.2573 50.9243 15.2529 50.9419 15.2441C50.9595 15.2397 50.9683 15.2354 50.9683 15.231V16.0483C50.8496 16.0747 50.731 16.0923 50.6079 16.0923C50.4234 16.0923 50.2476 16.0396 50.0718 15.9341C49.896 15.8286 49.7686 15.7275 49.6895 15.6265L49.5752 15.4639C49.5357 15.5078 49.4741 15.5693 49.3906 15.6396C49.3027 15.71 49.127 15.8022 48.8545 15.9165C48.582 16.0308 48.2964 16.0923 48.002 16.0923C47.4351 16.0923 46.978 15.9429 46.6309 15.644C46.2837 15.3452 46.1123 14.9849 46.1123 14.563C46.1123 14.3433 46.1519 14.1323 46.2354 13.9214C46.3145 13.7104 46.4111 13.5347 46.5254 13.3896C46.6397 13.249 46.7539 13.1172 46.8682 13.0029C46.9824 12.8887 47.0791 12.8052 47.1582 12.7524L47.2857 12.6689C47.2153 12.603 47.1318 12.5151 47.0352 12.4009C46.9341 12.2866 46.8023 12.0889 46.6353 11.8032C46.4683 11.5176 46.3848 11.2671 46.3848 11.0518C46.3848 10.6475 46.5254 10.3047 46.8154 10.0278C47.1011 9.75098 47.4658 9.61035 47.9141 9.61035C48.3535 9.61035 48.7183 9.74658 49.0083 10.0103C49.2984 10.2783 49.4434 10.5947 49.4434 10.9595C49.4434 11.2231 49.3511 11.5 49.1709 11.7856C48.9907 12.0713 48.8106 12.2866 48.6348 12.436L48.3623 12.6689L49.5796 14.1543C49.7905 13.8247 49.896 13.4204 49.896 12.9414H50.7046C50.7046 13.2622 50.6563 13.5786 50.5684 13.8906C50.4761 14.207 50.3882 14.4399 50.3003 14.5981L50.1641 14.8311ZM47.9976 15.2793C48.1821 15.2793 48.3667 15.2485 48.5469 15.1826C48.7315 15.1167 48.8677 15.0464 48.9556 14.9761L49.0786 14.875L47.7734 13.2534C47.7163 13.2974 47.646 13.3545 47.5581 13.4336C47.4746 13.5127 47.3604 13.6621 47.2197 13.873C47.0791 14.084 47.0088 14.2861 47.0088 14.4707C47.0088 14.7256 47.0923 14.9233 47.2549 15.064C47.4219 15.209 47.668 15.2793 47.9976 15.2793ZM48.5864 11.0518C48.5864 10.876 48.5249 10.7266 48.3975 10.6035C48.2744 10.4805 48.1118 10.4233 47.9097 10.4233C47.7119 10.4233 47.5493 10.4805 47.4219 10.6035C47.2988 10.7222 47.2329 10.8716 47.2329 11.0518C47.2329 11.1836 47.2901 11.3374 47.3999 11.5088C47.5142 11.6846 47.624 11.8252 47.7383 11.9307L47.9097 12.0845C47.958 12.0449 48.0195 11.9878 48.0943 11.9131C48.1734 11.8384 48.2744 11.7109 48.3975 11.5264C48.5249 11.3418 48.5864 11.1836 48.5864 11.0518ZM54.6157 9.69824V12.1328C54.6245 12.1196 54.6465 12.1021 54.6729 12.0757C54.6992 12.0493 54.7564 12.0054 54.8399 11.9438C54.9234 11.8823 55.0156 11.8296 55.1123 11.7812C55.209 11.7329 55.3276 11.689 55.4771 11.6494C55.6221 11.6099 55.7715 11.5923 55.9209 11.5923C56.4395 11.5923 56.8657 11.7637 57.1909 12.1064C57.5161 12.4492 57.6787 12.9062 57.6787 13.4863V16.0044H56.7778V13.4863C56.7778 13.1743 56.6768 12.915 56.479 12.7085C56.2813 12.5063 56.0352 12.4009 55.7407 12.4009C55.398 12.4009 55.1211 12.5151 54.919 12.7349C54.7168 12.9546 54.6157 13.2666 54.6157 13.6621V16H53.7193V9.69824H54.6157ZM62.2666 13.8423C62.2666 13.438 62.1304 13.0996 61.8667 12.8184C61.5986 12.5415 61.2822 12.4009 60.9175 12.4009C60.5484 12.4009 60.2319 12.5415 59.9639 12.8184C59.6958 13.0996 59.564 13.438 59.564 13.8423C59.564 14.2466 59.6958 14.585 59.9639 14.8618C60.2319 15.1431 60.5484 15.2793 60.9175 15.2793C61.2822 15.2793 61.5986 15.1431 61.8667 14.8618C62.1304 14.585 62.2666 14.2466 62.2666 13.8423ZM58.6675 13.8423C58.6675 13.2358 58.8872 12.7085 59.3355 12.2603C59.7837 11.812 60.311 11.5879 60.9175 11.5879C61.5239 11.5879 62.0469 11.812 62.4951 12.2603C62.9434 12.7085 63.1675 13.2358 63.1675 13.8423C63.1675 14.4487 62.9434 14.9717 62.4951 15.4199C62.0469 15.8682 61.5239 16.0923 60.9175 16.0923C60.311 16.0923 59.7837 15.8682 59.3355 15.4199C58.8872 14.9717 58.6675 14.4487 58.6675 13.8423ZM65.0571 11.6802L65.0527 12.1328L65.1099 12.0757C65.1362 12.0493 65.1934 12.0054 65.2769 11.9438C65.3648 11.8823 65.4526 11.8296 65.5493 11.7812C65.646 11.7329 65.7647 11.689 65.9141 11.6494C66.0635 11.6099 66.2085 11.5923 66.3579 11.5923C66.8809 11.5923 67.3027 11.7637 67.6279 12.1064C67.9531 12.4492 68.1157 12.9062 68.1157 13.4863V16.0044H67.2149V13.4863C67.2149 13.1743 67.1138 12.915 66.916 12.7085C66.7183 12.5063 66.4722 12.4009 66.1821 12.4009C65.8394 12.4009 65.5625 12.5151 65.3604 12.7349C65.1582 12.9546 65.0571 13.2666 65.0571 13.6621V16H64.1563V11.6802H65.0571ZM72.708 13.8423C72.708 13.438 72.5718 13.0996 72.3081 12.8184C72.0401 12.5415 71.7236 12.4009 71.3589 12.4009C70.9898 12.4009 70.6734 12.5415 70.4053 12.8184C70.1372 13.0996 70.0054 13.438 70.0054 13.8423C70.0054 14.2466 70.1372 14.585 70.4053 14.8618C70.6734 15.1431 70.9898 15.2793 71.3589 15.2793C71.7236 15.2793 72.0401 15.1431 72.3081 14.8618C72.5718 14.585 72.708 14.2466 72.708 13.8423ZM69.1089 13.8423C69.1089 13.2358 69.3286 12.7085 69.7769 12.2603C70.2251 11.812 70.7525 11.5879 71.3589 11.5879C71.9653 11.5879 72.4883 11.812 72.9365 12.2603C73.3848 12.7085 73.6089 13.2358 73.6089 13.8423C73.6089 14.4487 73.3848 14.9717 72.9365 15.4199C72.4883 15.8682 71.9653 16.0923 71.3589 16.0923C70.7525 16.0923 70.2251 15.8682 69.7769 15.4199C69.3286 14.9717 69.1089 14.4487 69.1089 13.8423ZM77.6563 16V15.5518L77.5991 15.6089C77.5728 15.6353 77.5156 15.6792 77.4321 15.7407C77.3486 15.8022 77.2608 15.855 77.1641 15.9033C77.0674 15.9517 76.9443 15.9956 76.7993 16.0308C76.6499 16.0703 76.5005 16.0879 76.3511 16.0879C75.8281 16.0879 75.4063 15.9209 75.0811 15.5781C74.7559 15.2354 74.5977 14.7783 74.5977 14.1982V11.6802H75.4985V14.1982C75.4985 14.5103 75.5952 14.7695 75.793 14.9717C75.9907 15.1782 76.2368 15.2793 76.5313 15.2793C76.874 15.2793 77.1465 15.1694 77.3486 14.9497C77.5508 14.73 77.6563 14.418 77.6563 14.0181V11.6802H78.5571V16H77.6563ZM82.2925 12.4448C82.1694 12.4185 82.0332 12.4009 81.8838 12.4009C81.541 12.4009 81.2686 12.5151 81.0664 12.7349C80.8643 12.9546 80.7588 13.2666 80.7588 13.6621V16H79.8579V11.6802H80.7588V12.1284L80.8159 12.0713C80.8423 12.0449 80.8994 12.0054 80.9829 11.9438C81.0708 11.8823 81.1587 11.8296 81.2554 11.7812C81.3521 11.7329 81.4707 11.689 81.6201 11.6494C81.7695 11.6099 81.919 11.5879 82.0684 11.5879H82.2925V12.4448Z" fill="white"/>
<path d="M121.393 15.7407V15.3716L121.336 15.4287C121.31 15.4551 121.252 15.499 121.169 15.5605C121.085 15.6221 120.998 15.6748 120.901 15.7231C120.804 15.7715 120.681 15.8154 120.536 15.855C120.387 15.8945 120.237 15.9121 120.088 15.9121C119.543 15.9121 119.068 15.7056 118.668 15.2837C118.264 14.8618 118.066 14.3521 118.066 13.75C118.066 13.1523 118.264 12.6426 118.668 12.2207C119.068 11.7988 119.543 11.5879 120.088 11.5879C120.325 11.5879 120.554 11.6362 120.773 11.7241C120.989 11.8164 121.147 11.9087 121.244 11.9966L121.393 12.1284V11.6802H122.294V15.7319C122.294 16.3384 122.083 16.8525 121.67 17.2656C121.252 17.6831 120.743 17.8896 120.136 17.8896C119.89 17.8896 119.653 17.8589 119.433 17.7974C119.209 17.7358 119.024 17.6611 118.884 17.5732C118.739 17.4854 118.611 17.3975 118.506 17.3096C118.396 17.2217 118.317 17.147 118.273 17.0811L118.198 16.9888L118.787 16.4043C118.796 16.4219 118.818 16.4482 118.844 16.479C118.871 16.5098 118.923 16.5625 119.011 16.6416C119.099 16.7207 119.191 16.7866 119.288 16.8481C119.385 16.9097 119.508 16.9624 119.662 17.0107C119.811 17.0591 119.969 17.0811 120.136 17.0811C120.501 17.0811 120.8 16.958 121.037 16.7075C121.274 16.4614 121.393 16.1362 121.393 15.7407ZM118.963 13.75C118.963 14.1279 119.082 14.4487 119.328 14.708C119.569 14.9717 119.855 15.0991 120.18 15.0991C120.505 15.0991 120.787 14.9717 121.028 14.708C121.27 14.4487 121.393 14.1279 121.393 13.75C121.393 13.3721 121.27 13.0557 121.028 12.792C120.787 12.5327 120.505 12.4009 120.18 12.4009C119.855 12.4009 119.569 12.5327 119.328 12.792C119.082 13.0557 118.963 13.3721 118.963 13.75ZM125.485 12.4448C125.362 12.4185 125.226 12.4009 125.077 12.4009C124.734 12.4009 124.461 12.5151 124.259 12.7349C124.057 12.9546 123.952 13.2666 123.952 13.6621V16H123.051V11.6802H123.952V12.1284L124.009 12.0713C124.035 12.0449 124.092 12.0054 124.176 11.9438C124.264 11.8823 124.352 11.8296 124.448 11.7812C124.545 11.7329 124.664 11.689 124.813 11.6494C124.962 11.6099 125.112 11.5879 125.261 11.5879H125.485V12.4448ZM129.033 13.8423C129.033 13.438 128.896 13.0996 128.633 12.8184C128.365 12.5415 128.048 12.4009 127.684 12.4009C127.314 12.4009 126.998 12.5415 126.73 12.8184C126.462 13.0996 126.33 13.438 126.33 13.8423C126.33 14.2466 126.462 14.585 126.73 14.8618C126.998 15.1431 127.314 15.2793 127.684 15.2793C128.048 15.2793 128.365 15.1431 128.633 14.8618C128.896 14.585 129.033 14.2466 129.033 13.8423ZM125.434 13.8423C125.434 13.2358 125.653 12.7085 126.102 12.2603C126.55 11.812 127.077 11.5879 127.684 11.5879C128.29 11.5879 128.813 11.812 129.261 12.2603C129.709 12.7085 129.934 13.2358 129.934 13.8423C129.934 14.4487 129.709 14.9717 129.261 15.4199C128.813 15.8682 128.29 16.0923 127.684 16.0923C127.077 16.0923 126.55 15.8682 126.102 15.4199C125.653 14.9717 125.434 14.4487 125.434 13.8423ZM133.481 16V15.5518L133.424 15.6089C133.397 15.6353 133.34 15.6792 133.257 15.7407C133.173 15.8022 133.085 15.855 132.989 15.9033C132.892 15.9517 132.769 15.9956 132.624 16.0308C132.475 16.0703 132.325 16.0879 132.176 16.0879C131.653 16.0879 131.231 15.9209 130.906 15.5781C130.581 15.2354 130.422 14.7783 130.422 14.1982V11.6802H131.323V14.1982C131.323 14.5103 131.42 14.7695 131.618 14.9717C131.815 15.1782 132.061 15.2793 132.356 15.2793C132.699 15.2793 132.971 15.1694 133.173 14.9497C133.375 14.73 133.481 14.418 133.481 14.0181V11.6802H134.382V16H133.481ZM137.481 16.0879C137.318 16.0879 137.16 16.0703 137.011 16.0308C136.857 15.9956 136.725 15.9473 136.62 15.8901C136.51 15.833 136.413 15.7759 136.33 15.7144C136.246 15.6528 136.185 15.6045 136.149 15.5693L136.088 15.5034V17.8896H135.187V11.6802H136.088V12.1768C136.127 12.1372 136.185 12.0845 136.259 12.0142C136.334 11.9482 136.492 11.8604 136.738 11.7505C136.98 11.645 137.226 11.5879 137.481 11.5879C138.052 11.5879 138.544 11.8076 138.966 12.2471C139.388 12.6865 139.599 13.2139 139.599 13.8379C139.599 14.4619 139.388 14.9937 138.966 15.4331C138.544 15.8726 138.052 16.0879 137.481 16.0879ZM137.393 12.4009C137.05 12.4009 136.747 12.5415 136.483 12.8228C136.22 13.104 136.088 13.4468 136.088 13.8423C136.088 14.2378 136.22 14.5762 136.483 14.8574C136.747 15.1387 137.05 15.2793 137.393 15.2793C137.736 15.2793 138.039 15.1387 138.303 14.8574C138.566 14.5762 138.698 14.2378 138.698 13.8423C138.698 13.4468 138.566 13.104 138.303 12.8228C138.039 12.5415 137.736 12.4009 137.393 12.4009Z" fill="white"/>
<path d="M141.25 16C141.664 16 141.999 15.6642 141.999 15.25C141.999 14.8358 141.664 14.5 141.25 14.5C140.836 14.5 140.5 14.8358 140.5 15.25C140.5 15.6642 140.836 16 141.25 16Z" fill="white"/>
</g>
<defs>
<clipPath id="clip0_430_29811">
<rect width="150" height="46" fill="white"/>
</clipPath>
</defs>
</svg>
