<svg width="150" height="46" viewBox="0 0 150 46" fill="none" xmlns="http://www.w3.org/2000/svg">
<g clip-path="url(#clip0_4013_82)">
<path d="M145.928 0.25H3.99815C1.9281 0.25 0.25 1.92893 0.25 4V42C0.25 44.0711 1.9281 45.75 3.99815 45.75H145.928C147.998 45.75 149.676 44.0711 149.676 42V4C149.676 1.92893 147.998 0.25 145.928 0.25Z" stroke="black" stroke-opacity="0.1" stroke-width="0.5"/>
<path d="M9.70312 23.6963H14.6456C16.5742 23.6963 18.197 24.3457 19.5137 25.626C20.8212 26.9155 21.4796 28.4927 21.4796 30.3481C21.4796 32.2129 20.8212 33.79 19.5137 35.0703C18.197 36.3599 16.5742 37 14.6456 37H9.70312V23.6963ZM14.6456 26.2661H12.5592V34.4395H14.6456C15.7397 34.4395 16.6855 34.0498 17.4645 33.252C18.2434 32.4634 18.6328 31.4985 18.6328 30.3574C18.6328 29.2163 18.2526 28.2515 17.4922 27.4536C16.7319 26.665 15.7768 26.2661 14.6456 26.2661ZM23.6318 37L23.6225 23.6963H29.5107C30.8275 23.6963 31.9216 24.123 32.784 24.9673C33.6464 25.8115 34.073 26.8413 34.073 28.0659C34.073 28.604 33.9895 29.0957 33.8226 29.5596C33.6557 30.0234 33.461 30.4038 33.2384 30.6821C33.0158 30.9697 32.784 31.2109 32.5522 31.415C32.3111 31.6191 32.1163 31.7583 31.9495 31.8325L31.7083 31.9624L34.5551 37H31.5136L28.9544 32.3428H26.4878V37H23.6318ZM31.2262 28.0659C31.2262 27.5464 31.0592 27.1196 30.7162 26.7764C30.3731 26.4424 29.9373 26.2661 29.418 26.2661H26.4785V29.7822H29.418C29.9373 29.7822 30.3731 29.6245 30.7162 29.2905C31.0592 28.9565 31.2262 28.5483 31.2262 28.0659ZM39.4707 34.4395H46.5922V37H36.6146V23.6963H46.3974V26.2661H39.4707V28.9287H44.8766V31.4893H39.4707V34.4395ZM55.5877 31.3965L53.9742 27.0269L52.3515 31.3965H55.5877ZM56.5335 33.8643H51.4057L50.2652 37H47.2237L52.4535 23.6963H55.4857L60.7155 37H57.6741L56.5335 33.8643ZM69.2382 29.4946L73.8374 23.6963H76.3597V37H73.5129V28.1309L69.2382 33.5767L64.9727 28.168V37H62.1167V23.6963H64.6852L69.2382 29.4946ZM85.0678 33.1035C85.0678 32.6582 84.836 32.3057 84.3908 32.0366C83.9457 31.7583 83.3987 31.5356 82.7496 31.3501C82.1004 31.1646 81.4606 30.9512 80.8209 30.71C80.181 30.4595 79.6339 30.0513 79.1796 29.4854C78.7345 28.9102 78.5026 28.1958 78.5026 27.3237C78.5026 26.2476 78.9385 25.3291 79.8009 24.5684C80.6631 23.8076 81.7852 23.4272 83.1576 23.4272C83.7046 23.4272 84.2332 23.4829 84.7339 23.6128C85.244 23.7427 85.6612 23.8911 85.9857 24.0581C86.3103 24.2251 86.5977 24.4014 86.8389 24.5776C87.08 24.7539 87.2561 24.9116 87.3581 25.0415L87.525 25.2271L85.8189 27.0361C85.7446 26.9434 85.6427 26.8413 85.5128 26.7114C85.383 26.5815 85.0955 26.4146 84.6691 26.2012C84.2425 25.9971 83.8067 25.8857 83.3523 25.8857C82.8145 25.8857 82.3787 26.0249 82.0449 26.3032C81.711 26.5815 81.5441 26.9248 81.5441 27.3145C81.5441 27.7598 81.7759 28.1216 82.221 28.3906C82.6661 28.6597 83.2132 28.8823 83.8531 29.0679C84.4928 29.2534 85.1326 29.4761 85.7817 29.7173C86.4309 29.9678 86.9779 30.376 87.423 30.9419C87.8774 31.5171 88.1 32.2314 88.1 33.1035C88.1 34.3374 87.6549 35.3394 86.7646 36.1187C85.8745 36.8979 84.6412 37.2876 83.0648 37.2876C82.4529 37.2876 81.85 37.2134 81.2752 37.0649C80.7003 36.9165 80.218 36.731 79.8471 36.5176C79.4762 36.3135 79.1425 36.1001 78.8642 35.8774C78.5768 35.6641 78.3728 35.4785 78.2522 35.3301L78.039 35.0981L79.7545 33.3911C79.8379 33.4932 79.9585 33.623 80.1161 33.7808C80.2737 33.9385 80.6261 34.1519 81.1732 34.4116C81.711 34.6807 82.2859 34.8105 82.8793 34.8105C83.5656 34.8105 84.0941 34.6528 84.4835 34.3281C84.8731 34.0127 85.0678 33.6045 85.0678 33.1035ZM88.444 23.6963H98.8851V26.2661H95.0926V37H92.2458V26.2661H88.444V23.6963ZM101.9 30.3574C101.9 31.582 102.307 32.6211 103.142 33.4561C103.968 34.3003 104.978 34.7178 106.165 34.7178C107.352 34.7178 108.363 34.3003 109.188 33.4561C110.023 32.6211 110.43 31.582 110.43 30.3574C110.43 29.1328 110.023 28.0938 109.188 27.2495C108.363 26.4053 107.352 25.9785 106.165 25.9785C104.978 25.9785 103.968 26.4053 103.142 27.2495C102.307 28.0938 101.9 29.1328 101.9 30.3574ZM98.951 30.3481C98.951 28.437 99.6465 26.8042 101.037 25.4497C102.428 24.0952 104.143 23.418 106.165 23.418C108.186 23.418 109.903 24.0952 111.293 25.4497C112.684 26.8042 113.38 28.437 113.38 30.3481C113.38 32.2593 112.684 33.9014 111.293 35.2559C109.903 36.6104 108.186 37.2876 106.165 37.2876C104.143 37.2876 102.428 36.6104 101.037 35.2559C99.6465 33.9014 98.951 32.2593 98.951 30.3481ZM124.572 23.6963H127.419V37H124.953L118.406 28.5483V37H115.55V23.6963H118.026L124.572 32.1572V23.6963ZM133.188 34.4395H140.31V37H130.332V23.6963H140.115V26.2661H133.188V28.9287H138.594V31.4893H133.188V34.4395Z" fill="#1D252D"/>
<path d="M12.3242 12.1768L11.7356 12.7612C11.7136 12.7393 11.6785 12.7085 11.6345 12.6646C11.5907 12.6206 11.494 12.5679 11.3535 12.502C11.2128 12.436 11.0679 12.4009 10.9274 12.4009C10.7341 12.4009 10.5804 12.4492 10.4662 12.5371C10.352 12.625 10.2993 12.7305 10.2993 12.8491C10.2993 12.9766 10.352 13.082 10.4618 13.1655C10.5672 13.2534 10.7034 13.3149 10.8703 13.3589C11.0328 13.4028 11.2084 13.46 11.3974 13.5259C11.5863 13.5918 11.762 13.6665 11.9288 13.7456C12.0957 13.8291 12.2319 13.9565 12.3417 14.1235C12.4471 14.2949 12.5042 14.5015 12.5042 14.7388C12.5042 15.1123 12.3505 15.4287 12.0518 15.6924C11.7532 15.9561 11.3623 16.0879 10.8834 16.0879C10.6726 16.0879 10.4706 16.0615 10.2773 16.0088C10.084 15.9561 9.93032 15.8945 9.80733 15.8198C9.68434 15.7495 9.57453 15.6748 9.48229 15.6001C9.39006 15.5254 9.32417 15.4595 9.28464 15.4067L9.21875 15.3232L9.80293 14.7388C9.82929 14.7827 9.87322 14.8311 9.93032 14.8926C9.98741 14.9541 10.1104 15.0376 10.2993 15.1343C10.4881 15.231 10.6814 15.2793 10.8834 15.2793C11.1207 15.2793 11.3007 15.231 11.4237 15.1343C11.5423 15.0376 11.6039 14.9058 11.6039 14.7388C11.6039 14.6157 11.5467 14.5103 11.4413 14.4268C11.3315 14.3433 11.1954 14.2773 11.0328 14.2334C10.8659 14.1895 10.6902 14.1323 10.5013 14.0664C10.3125 14.0005 10.1368 13.9258 9.96985 13.8467C9.80293 13.7676 9.66677 13.6401 9.56135 13.4688C9.45154 13.2974 9.39884 13.0908 9.39884 12.8491C9.39884 12.5195 9.54379 12.2251 9.83369 11.9702C10.1236 11.7153 10.4881 11.5879 10.9274 11.5879C11.0987 11.5879 11.2656 11.6099 11.4281 11.6494C11.5907 11.689 11.7224 11.7373 11.8278 11.7944C11.9288 11.8516 12.0166 11.9087 12.0957 11.9702C12.1748 12.0317 12.2319 12.0757 12.267 12.1108L12.3242 12.1768ZM14.0284 11.1396V10.2388H14.8366V11.6802H15.737V12.4888H14.8366V14.73C14.8366 14.8926 14.8849 15.0244 14.9903 15.1255C15.0913 15.231 15.2188 15.2793 15.3725 15.2793C15.4428 15.2793 15.513 15.2749 15.5877 15.2573C15.6623 15.2441 15.7194 15.2266 15.759 15.209L15.8249 15.1914V16C15.6492 16.0615 15.4384 16.0879 15.1924 16.0879C14.3534 16.0879 13.9361 15.6396 13.9405 14.7388V12.4888H13.128V11.6802H13.5804C13.879 11.6802 14.0284 11.5 14.0284 11.1396ZM19.3343 12.4448C19.2114 12.4185 19.0752 12.4009 18.9258 12.4009C18.5833 12.4009 18.3109 12.5151 18.1089 12.7349C17.9068 12.9546 17.8014 13.2666 17.8014 13.6621V16H16.901V11.6802H17.8014V12.1284L17.8586 12.0713C17.8848 12.0449 17.942 12.0054 18.0255 11.9438C18.1132 11.8823 18.2011 11.8296 18.2977 11.7812C18.3944 11.7329 18.5129 11.689 18.6624 11.6494C18.8117 11.6099 18.961 11.5879 19.1103 11.5879H19.3343V12.4448ZM24.0518 14.1543H20.6741C20.7223 14.4619 20.8717 14.7256 21.1264 14.9453C21.3812 15.1694 21.6799 15.2793 22.0269 15.2793C22.2817 15.2793 22.5145 15.2222 22.734 15.1079C22.9536 14.9937 23.1074 14.8838 23.1952 14.7739L23.3315 14.6069L23.9156 15.1914C23.898 15.2178 23.8717 15.2485 23.8365 15.2925C23.8014 15.3364 23.7224 15.4067 23.5993 15.5078C23.4808 15.6089 23.3533 15.6968 23.2172 15.7759C23.0855 15.855 22.9098 15.9253 22.6945 15.9912C22.4793 16.0571 22.2553 16.0879 22.0269 16.0879C21.4163 16.0879 20.8893 15.8638 20.4456 15.4155C20.002 14.9673 19.778 14.4268 19.778 13.7939C19.778 13.1875 19.9976 12.6689 20.4281 12.2383C20.8585 11.8076 21.3768 11.5879 21.9829 11.5879C22.5891 11.5879 23.0899 11.79 23.4939 12.1943C23.898 12.5986 24.1001 13.0996 24.1001 13.7061L24.0518 14.1543ZM21.9785 12.3569C21.6535 12.3569 21.3812 12.4536 21.1616 12.647C20.9419 12.8403 20.7926 13.0864 20.7135 13.3896H23.2128C23.1601 13.0864 23.0239 12.8403 22.8043 12.647C22.5847 12.4536 22.3124 12.3569 21.9785 12.3569ZM25.9843 11.6802L25.98 12.1328L26.0371 12.0757C26.0634 12.0493 26.1206 12.0054 26.204 11.9438C26.2919 11.8823 26.3797 11.8296 26.4763 11.7812C26.573 11.7329 26.6916 11.689 26.8409 11.6494C26.9902 11.6099 27.1352 11.5923 27.2845 11.5923C27.8072 11.5923 28.2289 11.7637 28.5539 12.1064C28.8789 12.4492 29.0414 12.9062 29.0414 13.4863V16.0044H28.1411V13.4863C28.1411 13.1743 28.04 12.915 27.8423 12.7085C27.6447 12.5063 27.3987 12.4009 27.1088 12.4009C26.7663 12.4009 26.4895 12.5151 26.2875 12.7349C26.0854 12.9546 25.9843 13.2666 25.9843 13.6621V16H25.084V11.6802H25.9843ZM33.3592 15.7407V15.3716L33.302 15.4287C33.2757 15.4551 33.2186 15.499 33.1351 15.5605C33.0516 15.6221 32.9639 15.6748 32.8672 15.7231C32.7706 15.7715 32.6476 15.8154 32.5026 15.855C32.3533 15.8945 32.204 15.9121 32.0546 15.9121C31.51 15.9121 31.0356 15.7056 30.6359 15.2837C30.2318 14.8618 30.0341 14.3521 30.0341 13.75C30.0341 13.1523 30.2318 12.6426 30.6359 12.2207C31.0356 11.7988 31.51 11.5879 32.0546 11.5879C32.2918 11.5879 32.5202 11.6362 32.7398 11.7241C32.9551 11.8164 33.1132 11.9087 33.2099 11.9966L33.3592 12.1284V11.6802H34.2596V15.7319C34.2596 16.3384 34.0488 16.8525 33.6359 17.2656C33.2186 17.6831 32.7091 17.8896 32.1029 17.8896C31.8569 17.8896 31.6198 17.8589 31.4002 17.7974C31.1762 17.7358 30.9917 17.6611 30.8511 17.5732C30.7062 17.4854 30.5788 17.3975 30.4734 17.3096C30.3636 17.2217 30.2845 17.147 30.2405 17.0811L30.1659 16.9888L30.7545 16.4043C30.7633 16.4219 30.7853 16.4482 30.8116 16.479C30.8379 16.5098 30.8906 16.5625 30.9785 16.6416C31.0663 16.7207 31.1586 16.7866 31.2552 16.8481C31.3519 16.9097 31.4748 16.9624 31.6286 17.0107C31.7779 17.0591 31.936 17.0811 32.1029 17.0811C32.4675 17.0811 32.7662 16.958 33.0034 16.7075C33.2406 16.4614 33.3592 16.1362 33.3592 15.7407ZM30.9302 13.75C30.9302 14.1279 31.0487 14.4487 31.2947 14.708C31.5363 14.9717 31.8219 15.0991 32.1469 15.0991C32.4719 15.0991 32.753 14.9717 32.9946 14.708C33.2362 14.4487 33.3592 14.1279 33.3592 13.75C33.3592 13.3721 33.2362 13.0557 32.9946 12.792C32.753 12.5327 32.4719 12.4009 32.1469 12.4009C31.8219 12.4009 31.5363 12.5327 31.2947 12.792C31.0487 13.0557 30.9302 13.3721 30.9302 13.75ZM36.0605 11.1396V10.2388H36.8687V11.6802H37.7691V12.4888H36.8687V14.73C36.8687 14.8926 36.9169 15.0244 37.0224 15.1255C37.1234 15.231 37.2508 15.2793 37.4045 15.2793C37.4748 15.2793 37.5451 15.2749 37.6198 15.2573C37.6945 15.2441 37.7515 15.2266 37.791 15.209L37.857 15.1914V16C37.6813 16.0615 37.4704 16.0879 37.2245 16.0879C36.3855 16.0879 35.9682 15.6396 35.9726 14.7388V12.4888H35.16V11.6802H35.6125C35.9111 11.6802 36.0605 11.5 36.0605 11.1396ZM39.9258 9.69824V12.1328C39.9345 12.1196 39.9565 12.1021 39.9828 12.0757C40.0092 12.0493 40.0663 12.0054 40.1497 11.9438C40.2332 11.8823 40.3255 11.8296 40.4221 11.7812C40.5188 11.7329 40.6373 11.689 40.7866 11.6494C40.9316 11.6099 41.081 11.5923 41.2303 11.5923C41.7485 11.5923 42.1746 11.7637 42.4997 12.1064C42.8247 12.4492 42.9872 12.9062 42.9872 13.4863V16.0044H42.0868V13.4863C42.0868 13.1743 41.9857 12.915 41.7881 12.7085C41.5904 12.5063 41.3444 12.4009 41.0502 12.4009C40.7076 12.4009 40.4309 12.5151 40.2288 12.7349C40.0268 12.9546 39.9258 13.2666 39.9258 13.6621V16H39.0297V9.69824H39.9258ZM50.138 14.8311C50.1556 14.8662 50.1819 14.9102 50.2215 14.9585C50.2609 15.0068 50.3356 15.0728 50.4411 15.1562C50.5465 15.2397 50.6562 15.2793 50.7617 15.2793C50.7925 15.2793 50.8232 15.2749 50.8495 15.2661C50.8759 15.2573 50.8978 15.2529 50.9154 15.2441C50.933 15.2397 50.9418 15.2354 50.9418 15.231V16.0483C50.8232 16.0747 50.7046 16.0923 50.5816 16.0923C50.3972 16.0923 50.2215 16.0396 50.0457 15.9341C49.87 15.8286 49.7427 15.7275 49.6636 15.6265L49.5494 15.4639C49.5099 15.5078 49.4483 15.5693 49.3649 15.6396C49.277 15.71 49.1014 15.8022 48.829 15.9165C48.5567 16.0308 48.2712 16.0923 47.977 16.0923C47.4104 16.0923 46.9535 15.9429 46.6065 15.644C46.2595 15.3452 46.0882 14.9849 46.0882 14.563C46.0882 14.3433 46.1278 14.1323 46.2112 13.9214C46.2903 13.7104 46.3869 13.5347 46.5011 13.3896C46.6153 13.249 46.7295 13.1172 46.8437 13.0029C46.9579 12.8887 47.0545 12.8052 47.1336 12.7524L47.261 12.6689C47.1907 12.603 47.1072 12.5151 47.0106 12.4009C46.9096 12.2866 46.7779 12.0889 46.6109 11.8032C46.444 11.5176 46.3606 11.2671 46.3606 11.0518C46.3606 10.6475 46.5011 10.3047 46.791 10.0278C47.0765 9.75098 47.441 9.61035 47.8891 9.61035C48.3283 9.61035 48.6929 9.74658 48.9828 10.0103C49.2727 10.2783 49.4177 10.5947 49.4177 10.9595C49.4177 11.2231 49.3254 11.5 49.1453 11.7856C48.9652 12.0713 48.7852 12.2866 48.6095 12.436L48.3371 12.6689L49.5538 14.1543C49.7646 13.8247 49.87 13.4204 49.87 12.9414H50.6782C50.6782 13.2622 50.63 13.5786 50.5421 13.8906C50.4498 14.207 50.362 14.4399 50.2741 14.5981L50.138 14.8311ZM47.9726 15.2793C48.157 15.2793 48.3415 15.2485 48.5216 15.1826C48.7061 15.1167 48.8422 15.0464 48.9301 14.9761L49.053 14.875L47.7485 13.2534C47.6914 13.2974 47.6211 13.3545 47.5333 13.4336C47.4498 13.5127 47.3357 13.6621 47.1951 13.873C47.0545 14.084 46.9843 14.2861 46.9843 14.4707C46.9843 14.7256 47.0677 14.9233 47.2302 15.064C47.3972 15.209 47.6431 15.2793 47.9726 15.2793ZM48.5611 11.0518C48.5611 10.876 48.4996 10.7266 48.3723 10.6035C48.2492 10.4805 48.0867 10.4233 47.8847 10.4233C47.687 10.4233 47.5245 10.4805 47.3972 10.6035C47.2741 10.7222 47.2082 10.8716 47.2082 11.0518C47.2082 11.1836 47.2654 11.3374 47.3752 11.5088C47.4894 11.6846 47.5992 11.8252 47.7134 11.9307L47.8847 12.0845C47.933 12.0449 47.9945 11.9878 48.0692 11.9131C48.1483 11.8384 48.2492 11.7109 48.3723 11.5264C48.4996 11.3418 48.5611 11.1836 48.5611 11.0518ZM54.5874 9.69824V12.1328C54.5962 12.1196 54.6182 12.1021 54.6446 12.0757C54.6709 12.0493 54.728 12.0054 54.8115 11.9438C54.895 11.8823 54.9871 11.8296 55.0838 11.7812C55.1804 11.7329 55.299 11.689 55.4484 11.6494C55.5933 11.6099 55.7426 11.5923 55.892 11.5923C56.4103 11.5923 56.8363 11.7637 57.1613 12.1064C57.4864 12.4492 57.6489 12.9062 57.6489 13.4863V16.0044H56.7484V13.4863C56.7484 13.1743 56.6475 12.915 56.4498 12.7085C56.2522 12.5063 56.0062 12.4009 55.7118 12.4009C55.3693 12.4009 55.0926 12.5151 54.8906 12.7349C54.6885 12.9546 54.5874 13.2666 54.5874 13.6621V16H53.6914V9.69824H54.5874ZM62.2345 13.8423C62.2345 13.438 62.0984 13.0996 61.8348 12.8184C61.5669 12.5415 61.2506 12.4009 60.8861 12.4009C60.5172 12.4009 60.2008 12.5415 59.933 12.8184C59.665 13.0996 59.5333 13.438 59.5333 13.8423C59.5333 14.2466 59.665 14.585 59.933 14.8618C60.2008 15.1431 60.5172 15.2793 60.8861 15.2793C61.2506 15.2793 61.5669 15.1431 61.8348 14.8618C62.0984 14.585 62.2345 14.2466 62.2345 13.8423ZM58.6372 13.8423C58.6372 13.2358 58.8568 12.7085 59.3049 12.2603C59.7528 11.812 60.2799 11.5879 60.8861 11.5879C61.4922 11.5879 62.0149 11.812 62.4629 12.2603C62.911 12.7085 63.135 13.2358 63.135 13.8423C63.135 14.4487 62.911 14.9717 62.4629 15.4199C62.0149 15.8682 61.4922 16.0923 60.8861 16.0923C60.2799 16.0923 59.7528 15.8682 59.3049 15.4199C58.8568 14.9717 58.6372 14.4487 58.6372 13.8423ZM65.0236 11.6802L65.0192 12.1328L65.0764 12.0757C65.1027 12.0493 65.1599 12.0054 65.2433 11.9438C65.3312 11.8823 65.4189 11.8296 65.5156 11.7812C65.6123 11.7329 65.7309 11.689 65.8802 11.6494C66.0295 11.6099 66.1745 11.5923 66.3238 11.5923C66.8465 11.5923 67.2681 11.7637 67.5932 12.1064C67.9182 12.4492 68.0807 12.9062 68.0807 13.4863V16.0044H67.1804V13.4863C67.1804 13.1743 67.0793 12.915 66.8816 12.7085C66.684 12.5063 66.438 12.4009 66.1481 12.4009C65.8056 12.4009 65.5288 12.5151 65.3268 12.7349C65.1247 12.9546 65.0236 13.2666 65.0236 13.6621V16H64.1233V11.6802H65.0236ZM72.6708 13.8423C72.6708 13.438 72.5346 13.0996 72.2711 12.8184C72.0032 12.5415 71.6868 12.4009 71.3223 12.4009C70.9534 12.4009 70.6372 12.5415 70.3692 12.8184C70.1012 13.0996 69.9695 13.438 69.9695 13.8423C69.9695 14.2466 70.1012 14.585 70.3692 14.8618C70.6372 15.1431 70.9534 15.2793 71.3223 15.2793C71.6868 15.2793 72.0032 15.1431 72.2711 14.8618C72.5346 14.585 72.6708 14.2466 72.6708 13.8423ZM69.0734 13.8423C69.0734 13.2358 69.293 12.7085 69.7411 12.2603C70.1891 11.812 70.7162 11.5879 71.3223 11.5879C71.9284 11.5879 72.4512 11.812 72.8991 12.2603C73.3472 12.7085 73.5712 13.2358 73.5712 13.8423C73.5712 14.4487 73.3472 14.9717 72.8991 15.4199C72.4512 15.8682 71.9284 16.0923 71.3223 16.0923C70.7162 16.0923 70.1891 15.8682 69.7411 15.4199C69.293 14.9717 69.0734 14.4487 69.0734 13.8423ZM77.6166 16V15.5518L77.5594 15.6089C77.5332 15.6353 77.476 15.6792 77.3925 15.7407C77.3091 15.8022 77.2213 15.855 77.1247 15.9033C77.028 15.9517 76.905 15.9956 76.76 16.0308C76.6107 16.0703 76.4614 16.0879 76.3121 16.0879C75.7893 16.0879 75.3677 15.9209 75.0427 15.5781C74.7177 15.2354 74.5595 14.7783 74.5595 14.1982V11.6802H75.4599V14.1982C75.4599 14.5103 75.5565 14.7695 75.7542 14.9717C75.9518 15.1782 76.1978 15.2793 76.4922 15.2793C76.8347 15.2793 77.1071 15.1694 77.3091 14.9497C77.5112 14.73 77.6166 14.418 77.6166 14.0181V11.6802H78.517V16H77.6166ZM82.2505 12.4448C82.1275 12.4185 81.9914 12.4009 81.842 12.4009C81.4994 12.4009 81.2271 12.5151 81.025 12.7349C80.823 12.9546 80.7176 13.2666 80.7176 13.6621V16H79.8171V11.6802H80.7176V12.1284L80.7747 12.0713C80.801 12.0449 80.8581 12.0054 80.9416 11.9438C81.0294 11.8823 81.1173 11.8296 81.2139 11.7812C81.3106 11.7329 81.4291 11.689 81.5785 11.6494C81.7278 11.6099 81.8772 11.5879 82.0265 11.5879H82.2505V12.4448Z" fill="#1D252D"/>
<path d="M121.333 15.7407V15.3716L121.276 15.4287C121.25 15.4551 121.192 15.499 121.109 15.5605C121.025 15.6221 120.938 15.6748 120.841 15.7231C120.744 15.7715 120.622 15.8154 120.477 15.855C120.328 15.8945 120.178 15.9121 120.029 15.9121C119.484 15.9121 119.009 15.7056 118.61 15.2837C118.206 14.8618 118.008 14.3521 118.008 13.75C118.008 13.1523 118.206 12.6426 118.61 12.2207C119.009 11.7988 119.484 11.5879 120.029 11.5879C120.266 11.5879 120.495 11.6362 120.713 11.7241C120.929 11.8164 121.087 11.9087 121.184 11.9966L121.333 12.1284V11.6802H122.234V15.7319C122.234 16.3384 122.023 16.8525 121.61 17.2656C121.192 17.6831 120.683 17.8896 120.077 17.8896C119.831 17.8896 119.594 17.8589 119.374 17.7974C119.15 17.7358 118.965 17.6611 118.825 17.5732C118.68 17.4854 118.553 17.3975 118.448 17.3096C118.338 17.2217 118.259 17.147 118.215 17.0811L118.14 16.9888L118.728 16.4043C118.737 16.4219 118.759 16.4482 118.785 16.479C118.812 16.5098 118.864 16.5625 118.952 16.6416C119.04 16.7207 119.132 16.7866 119.229 16.8481C119.326 16.9097 119.449 16.9624 119.603 17.0107C119.752 17.0591 119.91 17.0811 120.077 17.0811C120.442 17.0811 120.74 16.958 120.977 16.7075C121.214 16.4614 121.333 16.1362 121.333 15.7407ZM118.904 13.75C118.904 14.1279 119.023 14.4487 119.269 14.708C119.51 14.9717 119.796 15.0991 120.121 15.0991C120.446 15.0991 120.727 14.9717 120.968 14.708C121.21 14.4487 121.333 14.1279 121.333 13.75C121.333 13.3721 121.21 13.0557 120.968 12.792C120.727 12.5327 120.446 12.4009 120.121 12.4009C119.796 12.4009 119.51 12.5327 119.269 12.792C119.023 13.0557 118.904 13.3721 118.904 13.75ZM125.423 12.4448C125.3 12.4185 125.164 12.4009 125.015 12.4009C124.673 12.4009 124.4 12.5151 124.198 12.7349C123.996 12.9546 123.891 13.2666 123.891 13.6621V16H122.99V11.6802H123.891V12.1284L123.948 12.0713C123.974 12.0449 124.031 12.0054 124.115 11.9438C124.203 11.8823 124.291 11.8296 124.387 11.7812C124.484 11.7329 124.603 11.689 124.751 11.6494C124.9 11.6099 125.05 11.5879 125.199 11.5879H125.423V12.4448ZM128.969 13.8423C128.969 13.438 128.832 13.0996 128.57 12.8184C128.302 12.5415 127.985 12.4009 127.621 12.4009C127.251 12.4009 126.935 12.5415 126.668 12.8184C126.4 13.0996 126.268 13.438 126.268 13.8423C126.268 14.2466 126.4 14.585 126.668 14.8618C126.935 15.1431 127.251 15.2793 127.621 15.2793C127.985 15.2793 128.302 15.1431 128.57 14.8618C128.832 14.585 128.969 14.2466 128.969 13.8423ZM125.372 13.8423C125.372 13.2358 125.591 12.7085 126.04 12.2603C126.488 11.812 127.014 11.5879 127.621 11.5879C128.227 11.5879 128.749 11.812 129.197 12.2603C129.645 12.7085 129.87 13.2358 129.87 13.8423C129.87 14.4487 129.645 14.9717 129.197 15.4199C128.749 15.8682 128.227 16.0923 127.621 16.0923C127.014 16.0923 126.488 15.8682 126.04 15.4199C125.591 14.9717 125.372 14.4487 125.372 13.8423ZM133.415 16V15.5518L133.358 15.6089C133.331 15.6353 133.274 15.6792 133.191 15.7407C133.107 15.8022 133.019 15.855 132.923 15.9033C132.826 15.9517 132.704 15.9956 132.559 16.0308C132.41 16.0703 132.26 16.0879 132.111 16.0879C131.588 16.0879 131.166 15.9209 130.841 15.5781C130.517 15.2354 130.358 14.7783 130.358 14.1982V11.6802H131.258V14.1982C131.258 14.5103 131.355 14.7695 131.553 14.9717C131.75 15.1782 131.996 15.2793 132.291 15.2793C132.634 15.2793 132.905 15.1694 133.107 14.9497C133.309 14.73 133.415 14.418 133.415 14.0181V11.6802H134.316V16H133.415ZM137.413 16.0879C137.25 16.0879 137.092 16.0703 136.943 16.0308C136.79 15.9956 136.658 15.9473 136.553 15.8901C136.443 15.833 136.346 15.7759 136.263 15.7144C136.179 15.6528 136.118 15.6045 136.082 15.5693L136.021 15.5034V17.8896H135.12V11.6802H136.021V12.1768C136.06 12.1372 136.118 12.0845 136.192 12.0142C136.267 11.9482 136.425 11.8604 136.671 11.7505C136.912 11.645 137.158 11.5879 137.413 11.5879C137.984 11.5879 138.476 11.8076 138.897 12.2471C139.319 12.6865 139.53 13.2139 139.53 13.8379C139.53 14.4619 139.319 14.9937 138.897 15.4331C138.476 15.8726 137.984 16.0879 137.413 16.0879ZM137.325 12.4009C136.982 12.4009 136.68 12.5415 136.416 12.8228C136.153 13.104 136.021 13.4468 136.021 13.8423C136.021 14.2378 136.153 14.5762 136.416 14.8574C136.68 15.1387 136.982 15.2793 137.325 15.2793C137.668 15.2793 137.971 15.1387 138.235 14.8574C138.498 14.5762 138.63 14.2378 138.63 13.8423C138.63 13.4468 138.498 13.104 138.235 12.8228C137.971 12.5415 137.668 12.4009 137.325 12.4009Z" fill="#1D252D"/>
<path d="M141.179 16C141.593 16 141.929 15.6642 141.929 15.25C141.929 14.8358 141.593 14.5 141.179 14.5C140.765 14.5 140.43 14.8358 140.43 15.25C140.43 15.6642 140.765 16 141.179 16Z" fill="#1D252D"/>
</g>
<defs>
<clipPath id="clip0_4013_82">
<rect width="149.926" height="46" fill="white"/>
</clipPath>
</defs>
</svg>
